G04 (created by PCBNEW (2013-07-07 BZR 4022)-stable) date 1/19/2014 11:19:52 PM*
%MOIN*%
G04 Gerber Fmt 3.4, Leading zero omitted, Abs format*
%FSLAX34Y34*%
G01*
G70*
G90*
G04 APERTURE LIST*
%ADD10C,0.00590551*%
%ADD11R,0.045X0.02*%
%ADD12R,0.06X0.08*%
%ADD13R,0.08X0.06*%
%ADD14C,0.055*%
%ADD15R,0.0629X0.0709*%
%ADD16C,0.12*%
%ADD17C,0.035*%
%ADD18C,0.01*%
G04 APERTURE END LIST*
G54D10*
G54D11*
X30020Y-42610D03*
X30020Y-43110D03*
X30020Y-43610D03*
X30020Y-44110D03*
X27520Y-44110D03*
X27520Y-43610D03*
X27520Y-43110D03*
X27520Y-42610D03*
G54D12*
X29370Y-41110D03*
X28070Y-41110D03*
X28525Y-45570D03*
X29825Y-45570D03*
G54D13*
X26050Y-44230D03*
X26050Y-45530D03*
G54D14*
X33030Y-41015D03*
X33030Y-40015D03*
G54D15*
X28181Y-47510D03*
X29299Y-47510D03*
G54D16*
X24520Y-42595D03*
X33020Y-42595D03*
G54D17*
X30590Y-47520D03*
X30880Y-45590D03*
X26525Y-42205D03*
G54D18*
X29299Y-47510D02*
X30580Y-47510D01*
X30580Y-47510D02*
X30590Y-47520D01*
X29825Y-45570D02*
X30860Y-45570D01*
X30860Y-45570D02*
X30880Y-45590D01*
X27520Y-42610D02*
X26930Y-42610D01*
X26930Y-42610D02*
X26525Y-42205D01*
X26050Y-45530D02*
X26050Y-46435D01*
X27125Y-47510D02*
X28181Y-47510D01*
X26050Y-46435D02*
X27125Y-47510D01*
X28525Y-45570D02*
X28525Y-43835D01*
X29130Y-43605D02*
X29130Y-43610D01*
X28755Y-43605D02*
X29130Y-43605D01*
X28525Y-43835D02*
X28755Y-43605D01*
X28070Y-41110D02*
X28070Y-43100D01*
X28070Y-43100D02*
X28060Y-43110D01*
X27520Y-43110D02*
X28060Y-43110D01*
X28060Y-43110D02*
X28470Y-43110D01*
X28970Y-43610D02*
X29130Y-43610D01*
X29130Y-43610D02*
X30020Y-43610D01*
X28470Y-43110D02*
X28970Y-43610D01*
X26050Y-44230D02*
X26050Y-43830D01*
X26270Y-43610D02*
X27520Y-43610D01*
X26050Y-43830D02*
X26270Y-43610D01*
X29370Y-41110D02*
X29370Y-41770D01*
X29400Y-43110D02*
X30020Y-43110D01*
X29140Y-42850D02*
X29400Y-43110D01*
X29140Y-42000D02*
X29140Y-42850D01*
X29370Y-41770D02*
X29140Y-42000D01*
X33030Y-40015D02*
X31315Y-40015D01*
X30220Y-41110D02*
X29370Y-41110D01*
X31315Y-40015D02*
X30220Y-41110D01*
G54D10*
G36*
X33985Y-48329D02*
X33872Y-48329D01*
X33872Y-42748D01*
X33866Y-42410D01*
X33749Y-42126D01*
X33622Y-42062D01*
X33559Y-42125D01*
X33559Y-41090D01*
X33555Y-41002D01*
X33555Y-39911D01*
X33475Y-39718D01*
X33327Y-39570D01*
X33134Y-39490D01*
X32926Y-39489D01*
X32733Y-39569D01*
X32587Y-39715D01*
X31315Y-39715D01*
X31200Y-39737D01*
X31102Y-39802D01*
X30095Y-40810D01*
X29920Y-40810D01*
X29920Y-40660D01*
X29882Y-40568D01*
X29811Y-40498D01*
X29719Y-40460D01*
X29620Y-40459D01*
X29020Y-40459D01*
X28928Y-40497D01*
X28858Y-40568D01*
X28820Y-40660D01*
X28819Y-40759D01*
X28819Y-41559D01*
X28857Y-41651D01*
X28928Y-41721D01*
X28974Y-41741D01*
X28927Y-41787D01*
X28862Y-41885D01*
X28840Y-42000D01*
X28840Y-42850D01*
X28862Y-42964D01*
X28927Y-43062D01*
X29175Y-43310D01*
X29155Y-43310D01*
X29130Y-43305D01*
X29089Y-43305D01*
X28682Y-42897D01*
X28584Y-42832D01*
X28470Y-42810D01*
X28370Y-42810D01*
X28370Y-41760D01*
X28419Y-41760D01*
X28511Y-41722D01*
X28581Y-41651D01*
X28619Y-41559D01*
X28620Y-41460D01*
X28620Y-40660D01*
X28582Y-40568D01*
X28511Y-40498D01*
X28419Y-40460D01*
X28320Y-40459D01*
X27720Y-40459D01*
X27628Y-40497D01*
X27558Y-40568D01*
X27520Y-40660D01*
X27519Y-40759D01*
X27519Y-41559D01*
X27557Y-41651D01*
X27628Y-41721D01*
X27720Y-41759D01*
X27770Y-41759D01*
X27770Y-42260D01*
X27695Y-42259D01*
X27245Y-42259D01*
X27153Y-42297D01*
X27083Y-42368D01*
X27045Y-42460D01*
X27044Y-42559D01*
X27044Y-42759D01*
X27082Y-42851D01*
X27091Y-42859D01*
X27083Y-42868D01*
X27045Y-42960D01*
X27044Y-43059D01*
X27044Y-43259D01*
X27065Y-43310D01*
X26270Y-43310D01*
X26155Y-43332D01*
X26057Y-43397D01*
X25837Y-43617D01*
X25796Y-43679D01*
X25600Y-43679D01*
X25508Y-43717D01*
X25438Y-43788D01*
X25400Y-43880D01*
X25399Y-43979D01*
X25399Y-44579D01*
X25437Y-44671D01*
X25508Y-44741D01*
X25600Y-44779D01*
X25699Y-44780D01*
X26499Y-44780D01*
X26591Y-44742D01*
X26661Y-44671D01*
X26699Y-44579D01*
X26700Y-44480D01*
X26700Y-43910D01*
X27065Y-43910D01*
X27044Y-43960D01*
X27045Y-43997D01*
X27107Y-44060D01*
X27470Y-44060D01*
X27470Y-44052D01*
X27570Y-44052D01*
X27570Y-44060D01*
X27932Y-44060D01*
X27995Y-43997D01*
X27995Y-43960D01*
X27957Y-43868D01*
X27948Y-43860D01*
X27956Y-43851D01*
X27994Y-43759D01*
X27995Y-43660D01*
X27995Y-43460D01*
X27974Y-43410D01*
X28060Y-43410D01*
X28345Y-43410D01*
X28435Y-43499D01*
X28312Y-43622D01*
X28247Y-43720D01*
X28225Y-43835D01*
X28225Y-44919D01*
X28175Y-44919D01*
X28083Y-44957D01*
X28013Y-45028D01*
X27995Y-45071D01*
X27995Y-44259D01*
X27995Y-44222D01*
X27932Y-44160D01*
X27570Y-44160D01*
X27570Y-44397D01*
X27632Y-44460D01*
X27695Y-44460D01*
X27794Y-44459D01*
X27886Y-44421D01*
X27957Y-44351D01*
X27995Y-44259D01*
X27995Y-45071D01*
X27975Y-45120D01*
X27974Y-45219D01*
X27974Y-46019D01*
X28012Y-46111D01*
X28083Y-46181D01*
X28175Y-46219D01*
X28274Y-46220D01*
X28874Y-46220D01*
X28966Y-46182D01*
X29036Y-46111D01*
X29074Y-46019D01*
X29075Y-45920D01*
X29075Y-45120D01*
X29037Y-45028D01*
X28966Y-44958D01*
X28874Y-44920D01*
X28825Y-44920D01*
X28825Y-43959D01*
X28879Y-43905D01*
X28944Y-43905D01*
X28944Y-43905D01*
X28970Y-43910D01*
X29130Y-43910D01*
X29565Y-43910D01*
X29545Y-43960D01*
X29544Y-44059D01*
X29544Y-44259D01*
X29582Y-44351D01*
X29653Y-44421D01*
X29745Y-44459D01*
X29844Y-44460D01*
X30294Y-44460D01*
X30386Y-44422D01*
X30456Y-44351D01*
X30494Y-44259D01*
X30495Y-44160D01*
X30495Y-43960D01*
X30457Y-43868D01*
X30448Y-43860D01*
X30456Y-43851D01*
X30494Y-43759D01*
X30495Y-43660D01*
X30495Y-43460D01*
X30457Y-43368D01*
X30448Y-43360D01*
X30456Y-43351D01*
X30494Y-43259D01*
X30495Y-43160D01*
X30495Y-42960D01*
X30457Y-42868D01*
X30448Y-42860D01*
X30457Y-42851D01*
X30495Y-42759D01*
X30495Y-42460D01*
X30457Y-42368D01*
X30386Y-42298D01*
X30294Y-42260D01*
X30195Y-42259D01*
X30132Y-42260D01*
X30070Y-42322D01*
X30070Y-42560D01*
X30432Y-42560D01*
X30495Y-42497D01*
X30495Y-42460D01*
X30495Y-42759D01*
X30495Y-42722D01*
X30432Y-42660D01*
X30070Y-42660D01*
X30070Y-42667D01*
X29970Y-42667D01*
X29970Y-42660D01*
X29970Y-42560D01*
X29970Y-42322D01*
X29907Y-42260D01*
X29844Y-42259D01*
X29745Y-42260D01*
X29653Y-42298D01*
X29582Y-42368D01*
X29544Y-42460D01*
X29545Y-42497D01*
X29607Y-42560D01*
X29970Y-42560D01*
X29970Y-42660D01*
X29607Y-42660D01*
X29545Y-42722D01*
X29544Y-42759D01*
X29565Y-42810D01*
X29524Y-42810D01*
X29440Y-42725D01*
X29440Y-42124D01*
X29582Y-41982D01*
X29582Y-41982D01*
X29647Y-41884D01*
X29669Y-41770D01*
X29670Y-41770D01*
X29670Y-41760D01*
X29719Y-41760D01*
X29811Y-41722D01*
X29881Y-41651D01*
X29919Y-41559D01*
X29920Y-41460D01*
X29920Y-41410D01*
X30220Y-41410D01*
X30220Y-41409D01*
X30334Y-41387D01*
X30334Y-41387D01*
X30432Y-41322D01*
X31439Y-40315D01*
X32587Y-40315D01*
X32732Y-40459D01*
X32858Y-40512D01*
X32757Y-40554D01*
X32732Y-40647D01*
X33030Y-40944D01*
X33327Y-40647D01*
X33302Y-40554D01*
X33192Y-40515D01*
X33327Y-40460D01*
X33474Y-40312D01*
X33554Y-40119D01*
X33555Y-39911D01*
X33555Y-41002D01*
X33548Y-40882D01*
X33490Y-40742D01*
X33397Y-40717D01*
X33100Y-41015D01*
X33397Y-41312D01*
X33490Y-41287D01*
X33559Y-41090D01*
X33559Y-42125D01*
X33552Y-42133D01*
X33552Y-41992D01*
X33488Y-41865D01*
X33327Y-41802D01*
X33327Y-41382D01*
X33030Y-41085D01*
X32959Y-41156D01*
X32959Y-41015D01*
X32662Y-40717D01*
X32569Y-40742D01*
X32500Y-40939D01*
X32511Y-41147D01*
X32569Y-41287D01*
X32662Y-41312D01*
X32959Y-41015D01*
X32959Y-41156D01*
X32732Y-41382D01*
X32757Y-41475D01*
X32954Y-41544D01*
X33162Y-41533D01*
X33302Y-41475D01*
X33327Y-41382D01*
X33327Y-41802D01*
X33173Y-41742D01*
X32835Y-41748D01*
X32551Y-41865D01*
X32487Y-41992D01*
X33020Y-42524D01*
X33552Y-41992D01*
X33552Y-42133D01*
X33090Y-42595D01*
X33622Y-43127D01*
X33749Y-43063D01*
X33872Y-42748D01*
X33872Y-48329D01*
X33552Y-48329D01*
X33552Y-43197D01*
X33020Y-42665D01*
X32949Y-42736D01*
X32949Y-42595D01*
X32417Y-42062D01*
X32290Y-42126D01*
X32167Y-42441D01*
X32173Y-42779D01*
X32290Y-43063D01*
X32417Y-43127D01*
X32949Y-42595D01*
X32949Y-42736D01*
X32487Y-43197D01*
X32551Y-43324D01*
X32866Y-43447D01*
X33204Y-43441D01*
X33488Y-43324D01*
X33552Y-43197D01*
X33552Y-48329D01*
X30375Y-48328D01*
X30375Y-45920D01*
X30375Y-45120D01*
X30337Y-45028D01*
X30266Y-44958D01*
X30174Y-44920D01*
X30075Y-44919D01*
X29475Y-44919D01*
X29383Y-44957D01*
X29313Y-45028D01*
X29275Y-45120D01*
X29274Y-45219D01*
X29274Y-46019D01*
X29312Y-46111D01*
X29383Y-46181D01*
X29475Y-46219D01*
X29574Y-46220D01*
X30174Y-46220D01*
X30266Y-46182D01*
X30336Y-46111D01*
X30374Y-46019D01*
X30375Y-45920D01*
X30375Y-48328D01*
X29863Y-48327D01*
X29863Y-47814D01*
X29863Y-47105D01*
X29825Y-47014D01*
X29755Y-46943D01*
X29663Y-46905D01*
X29563Y-46905D01*
X28934Y-46905D01*
X28843Y-46943D01*
X28772Y-47013D01*
X28739Y-47092D01*
X28707Y-47014D01*
X28637Y-46943D01*
X28545Y-46905D01*
X28445Y-46905D01*
X27816Y-46905D01*
X27725Y-46943D01*
X27654Y-47013D01*
X27616Y-47105D01*
X27616Y-47205D01*
X27616Y-47210D01*
X27470Y-47210D01*
X27470Y-44397D01*
X27470Y-44160D01*
X27107Y-44160D01*
X27045Y-44222D01*
X27044Y-44259D01*
X27082Y-44351D01*
X27153Y-44421D01*
X27245Y-44459D01*
X27344Y-44460D01*
X27407Y-44460D01*
X27470Y-44397D01*
X27470Y-47210D01*
X27249Y-47210D01*
X26350Y-46310D01*
X26350Y-46080D01*
X26499Y-46080D01*
X26591Y-46042D01*
X26661Y-45971D01*
X26699Y-45879D01*
X26700Y-45780D01*
X26700Y-45180D01*
X26662Y-45088D01*
X26591Y-45018D01*
X26499Y-44980D01*
X26400Y-44979D01*
X25600Y-44979D01*
X25508Y-45017D01*
X25438Y-45088D01*
X25400Y-45180D01*
X25399Y-45279D01*
X25399Y-45879D01*
X25437Y-45971D01*
X25508Y-46041D01*
X25600Y-46079D01*
X25699Y-46080D01*
X25750Y-46080D01*
X25750Y-46435D01*
X25772Y-46549D01*
X25837Y-46647D01*
X26912Y-47722D01*
X27010Y-47787D01*
X27125Y-47810D01*
X27616Y-47810D01*
X27616Y-47914D01*
X27654Y-48005D01*
X27724Y-48076D01*
X27816Y-48114D01*
X27916Y-48114D01*
X28545Y-48114D01*
X28636Y-48076D01*
X28707Y-48006D01*
X28740Y-47927D01*
X28772Y-48005D01*
X28842Y-48076D01*
X28934Y-48114D01*
X29034Y-48114D01*
X29663Y-48114D01*
X29754Y-48076D01*
X29825Y-48006D01*
X29863Y-47914D01*
X29863Y-47814D01*
X29863Y-48327D01*
X25372Y-48325D01*
X25372Y-42748D01*
X25366Y-42410D01*
X25249Y-42126D01*
X25122Y-42062D01*
X25052Y-42133D01*
X25052Y-41992D01*
X24988Y-41865D01*
X24673Y-41742D01*
X24335Y-41748D01*
X24051Y-41865D01*
X23987Y-41992D01*
X24520Y-42524D01*
X25052Y-41992D01*
X25052Y-42133D01*
X24590Y-42595D01*
X25122Y-43127D01*
X25249Y-43063D01*
X25372Y-42748D01*
X25372Y-48325D01*
X25052Y-48325D01*
X25052Y-43197D01*
X24520Y-42665D01*
X23987Y-43197D01*
X24051Y-43324D01*
X24366Y-43447D01*
X24704Y-43441D01*
X24988Y-43324D01*
X25052Y-43197D01*
X25052Y-48325D01*
X23729Y-48325D01*
X23729Y-42915D01*
X23790Y-43063D01*
X23917Y-43127D01*
X24449Y-42595D01*
X23917Y-42062D01*
X23790Y-42126D01*
X23729Y-42282D01*
X23729Y-39245D01*
X33985Y-39264D01*
X33985Y-48329D01*
X33985Y-48329D01*
G37*
G54D18*
X33985Y-48329D02*
X33872Y-48329D01*
X33872Y-42748D01*
X33866Y-42410D01*
X33749Y-42126D01*
X33622Y-42062D01*
X33559Y-42125D01*
X33559Y-41090D01*
X33555Y-41002D01*
X33555Y-39911D01*
X33475Y-39718D01*
X33327Y-39570D01*
X33134Y-39490D01*
X32926Y-39489D01*
X32733Y-39569D01*
X32587Y-39715D01*
X31315Y-39715D01*
X31200Y-39737D01*
X31102Y-39802D01*
X30095Y-40810D01*
X29920Y-40810D01*
X29920Y-40660D01*
X29882Y-40568D01*
X29811Y-40498D01*
X29719Y-40460D01*
X29620Y-40459D01*
X29020Y-40459D01*
X28928Y-40497D01*
X28858Y-40568D01*
X28820Y-40660D01*
X28819Y-40759D01*
X28819Y-41559D01*
X28857Y-41651D01*
X28928Y-41721D01*
X28974Y-41741D01*
X28927Y-41787D01*
X28862Y-41885D01*
X28840Y-42000D01*
X28840Y-42850D01*
X28862Y-42964D01*
X28927Y-43062D01*
X29175Y-43310D01*
X29155Y-43310D01*
X29130Y-43305D01*
X29089Y-43305D01*
X28682Y-42897D01*
X28584Y-42832D01*
X28470Y-42810D01*
X28370Y-42810D01*
X28370Y-41760D01*
X28419Y-41760D01*
X28511Y-41722D01*
X28581Y-41651D01*
X28619Y-41559D01*
X28620Y-41460D01*
X28620Y-40660D01*
X28582Y-40568D01*
X28511Y-40498D01*
X28419Y-40460D01*
X28320Y-40459D01*
X27720Y-40459D01*
X27628Y-40497D01*
X27558Y-40568D01*
X27520Y-40660D01*
X27519Y-40759D01*
X27519Y-41559D01*
X27557Y-41651D01*
X27628Y-41721D01*
X27720Y-41759D01*
X27770Y-41759D01*
X27770Y-42260D01*
X27695Y-42259D01*
X27245Y-42259D01*
X27153Y-42297D01*
X27083Y-42368D01*
X27045Y-42460D01*
X27044Y-42559D01*
X27044Y-42759D01*
X27082Y-42851D01*
X27091Y-42859D01*
X27083Y-42868D01*
X27045Y-42960D01*
X27044Y-43059D01*
X27044Y-43259D01*
X27065Y-43310D01*
X26270Y-43310D01*
X26155Y-43332D01*
X26057Y-43397D01*
X25837Y-43617D01*
X25796Y-43679D01*
X25600Y-43679D01*
X25508Y-43717D01*
X25438Y-43788D01*
X25400Y-43880D01*
X25399Y-43979D01*
X25399Y-44579D01*
X25437Y-44671D01*
X25508Y-44741D01*
X25600Y-44779D01*
X25699Y-44780D01*
X26499Y-44780D01*
X26591Y-44742D01*
X26661Y-44671D01*
X26699Y-44579D01*
X26700Y-44480D01*
X26700Y-43910D01*
X27065Y-43910D01*
X27044Y-43960D01*
X27045Y-43997D01*
X27107Y-44060D01*
X27470Y-44060D01*
X27470Y-44052D01*
X27570Y-44052D01*
X27570Y-44060D01*
X27932Y-44060D01*
X27995Y-43997D01*
X27995Y-43960D01*
X27957Y-43868D01*
X27948Y-43860D01*
X27956Y-43851D01*
X27994Y-43759D01*
X27995Y-43660D01*
X27995Y-43460D01*
X27974Y-43410D01*
X28060Y-43410D01*
X28345Y-43410D01*
X28435Y-43499D01*
X28312Y-43622D01*
X28247Y-43720D01*
X28225Y-43835D01*
X28225Y-44919D01*
X28175Y-44919D01*
X28083Y-44957D01*
X28013Y-45028D01*
X27995Y-45071D01*
X27995Y-44259D01*
X27995Y-44222D01*
X27932Y-44160D01*
X27570Y-44160D01*
X27570Y-44397D01*
X27632Y-44460D01*
X27695Y-44460D01*
X27794Y-44459D01*
X27886Y-44421D01*
X27957Y-44351D01*
X27995Y-44259D01*
X27995Y-45071D01*
X27975Y-45120D01*
X27974Y-45219D01*
X27974Y-46019D01*
X28012Y-46111D01*
X28083Y-46181D01*
X28175Y-46219D01*
X28274Y-46220D01*
X28874Y-46220D01*
X28966Y-46182D01*
X29036Y-46111D01*
X29074Y-46019D01*
X29075Y-45920D01*
X29075Y-45120D01*
X29037Y-45028D01*
X28966Y-44958D01*
X28874Y-44920D01*
X28825Y-44920D01*
X28825Y-43959D01*
X28879Y-43905D01*
X28944Y-43905D01*
X28944Y-43905D01*
X28970Y-43910D01*
X29130Y-43910D01*
X29565Y-43910D01*
X29545Y-43960D01*
X29544Y-44059D01*
X29544Y-44259D01*
X29582Y-44351D01*
X29653Y-44421D01*
X29745Y-44459D01*
X29844Y-44460D01*
X30294Y-44460D01*
X30386Y-44422D01*
X30456Y-44351D01*
X30494Y-44259D01*
X30495Y-44160D01*
X30495Y-43960D01*
X30457Y-43868D01*
X30448Y-43860D01*
X30456Y-43851D01*
X30494Y-43759D01*
X30495Y-43660D01*
X30495Y-43460D01*
X30457Y-43368D01*
X30448Y-43360D01*
X30456Y-43351D01*
X30494Y-43259D01*
X30495Y-43160D01*
X30495Y-42960D01*
X30457Y-42868D01*
X30448Y-42860D01*
X30457Y-42851D01*
X30495Y-42759D01*
X30495Y-42460D01*
X30457Y-42368D01*
X30386Y-42298D01*
X30294Y-42260D01*
X30195Y-42259D01*
X30132Y-42260D01*
X30070Y-42322D01*
X30070Y-42560D01*
X30432Y-42560D01*
X30495Y-42497D01*
X30495Y-42460D01*
X30495Y-42759D01*
X30495Y-42722D01*
X30432Y-42660D01*
X30070Y-42660D01*
X30070Y-42667D01*
X29970Y-42667D01*
X29970Y-42660D01*
X29970Y-42560D01*
X29970Y-42322D01*
X29907Y-42260D01*
X29844Y-42259D01*
X29745Y-42260D01*
X29653Y-42298D01*
X29582Y-42368D01*
X29544Y-42460D01*
X29545Y-42497D01*
X29607Y-42560D01*
X29970Y-42560D01*
X29970Y-42660D01*
X29607Y-42660D01*
X29545Y-42722D01*
X29544Y-42759D01*
X29565Y-42810D01*
X29524Y-42810D01*
X29440Y-42725D01*
X29440Y-42124D01*
X29582Y-41982D01*
X29582Y-41982D01*
X29647Y-41884D01*
X29669Y-41770D01*
X29670Y-41770D01*
X29670Y-41760D01*
X29719Y-41760D01*
X29811Y-41722D01*
X29881Y-41651D01*
X29919Y-41559D01*
X29920Y-41460D01*
X29920Y-41410D01*
X30220Y-41410D01*
X30220Y-41409D01*
X30334Y-41387D01*
X30334Y-41387D01*
X30432Y-41322D01*
X31439Y-40315D01*
X32587Y-40315D01*
X32732Y-40459D01*
X32858Y-40512D01*
X32757Y-40554D01*
X32732Y-40647D01*
X33030Y-40944D01*
X33327Y-40647D01*
X33302Y-40554D01*
X33192Y-40515D01*
X33327Y-40460D01*
X33474Y-40312D01*
X33554Y-40119D01*
X33555Y-39911D01*
X33555Y-41002D01*
X33548Y-40882D01*
X33490Y-40742D01*
X33397Y-40717D01*
X33100Y-41015D01*
X33397Y-41312D01*
X33490Y-41287D01*
X33559Y-41090D01*
X33559Y-42125D01*
X33552Y-42133D01*
X33552Y-41992D01*
X33488Y-41865D01*
X33327Y-41802D01*
X33327Y-41382D01*
X33030Y-41085D01*
X32959Y-41156D01*
X32959Y-41015D01*
X32662Y-40717D01*
X32569Y-40742D01*
X32500Y-40939D01*
X32511Y-41147D01*
X32569Y-41287D01*
X32662Y-41312D01*
X32959Y-41015D01*
X32959Y-41156D01*
X32732Y-41382D01*
X32757Y-41475D01*
X32954Y-41544D01*
X33162Y-41533D01*
X33302Y-41475D01*
X33327Y-41382D01*
X33327Y-41802D01*
X33173Y-41742D01*
X32835Y-41748D01*
X32551Y-41865D01*
X32487Y-41992D01*
X33020Y-42524D01*
X33552Y-41992D01*
X33552Y-42133D01*
X33090Y-42595D01*
X33622Y-43127D01*
X33749Y-43063D01*
X33872Y-42748D01*
X33872Y-48329D01*
X33552Y-48329D01*
X33552Y-43197D01*
X33020Y-42665D01*
X32949Y-42736D01*
X32949Y-42595D01*
X32417Y-42062D01*
X32290Y-42126D01*
X32167Y-42441D01*
X32173Y-42779D01*
X32290Y-43063D01*
X32417Y-43127D01*
X32949Y-42595D01*
X32949Y-42736D01*
X32487Y-43197D01*
X32551Y-43324D01*
X32866Y-43447D01*
X33204Y-43441D01*
X33488Y-43324D01*
X33552Y-43197D01*
X33552Y-48329D01*
X30375Y-48328D01*
X30375Y-45920D01*
X30375Y-45120D01*
X30337Y-45028D01*
X30266Y-44958D01*
X30174Y-44920D01*
X30075Y-44919D01*
X29475Y-44919D01*
X29383Y-44957D01*
X29313Y-45028D01*
X29275Y-45120D01*
X29274Y-45219D01*
X29274Y-46019D01*
X29312Y-46111D01*
X29383Y-46181D01*
X29475Y-46219D01*
X29574Y-46220D01*
X30174Y-46220D01*
X30266Y-46182D01*
X30336Y-46111D01*
X30374Y-46019D01*
X30375Y-45920D01*
X30375Y-48328D01*
X29863Y-48327D01*
X29863Y-47814D01*
X29863Y-47105D01*
X29825Y-47014D01*
X29755Y-46943D01*
X29663Y-46905D01*
X29563Y-46905D01*
X28934Y-46905D01*
X28843Y-46943D01*
X28772Y-47013D01*
X28739Y-47092D01*
X28707Y-47014D01*
X28637Y-46943D01*
X28545Y-46905D01*
X28445Y-46905D01*
X27816Y-46905D01*
X27725Y-46943D01*
X27654Y-47013D01*
X27616Y-47105D01*
X27616Y-47205D01*
X27616Y-47210D01*
X27470Y-47210D01*
X27470Y-44397D01*
X27470Y-44160D01*
X27107Y-44160D01*
X27045Y-44222D01*
X27044Y-44259D01*
X27082Y-44351D01*
X27153Y-44421D01*
X27245Y-44459D01*
X27344Y-44460D01*
X27407Y-44460D01*
X27470Y-44397D01*
X27470Y-47210D01*
X27249Y-47210D01*
X26350Y-46310D01*
X26350Y-46080D01*
X26499Y-46080D01*
X26591Y-46042D01*
X26661Y-45971D01*
X26699Y-45879D01*
X26700Y-45780D01*
X26700Y-45180D01*
X26662Y-45088D01*
X26591Y-45018D01*
X26499Y-44980D01*
X26400Y-44979D01*
X25600Y-44979D01*
X25508Y-45017D01*
X25438Y-45088D01*
X25400Y-45180D01*
X25399Y-45279D01*
X25399Y-45879D01*
X25437Y-45971D01*
X25508Y-46041D01*
X25600Y-46079D01*
X25699Y-46080D01*
X25750Y-46080D01*
X25750Y-46435D01*
X25772Y-46549D01*
X25837Y-46647D01*
X26912Y-47722D01*
X27010Y-47787D01*
X27125Y-47810D01*
X27616Y-47810D01*
X27616Y-47914D01*
X27654Y-48005D01*
X27724Y-48076D01*
X27816Y-48114D01*
X27916Y-48114D01*
X28545Y-48114D01*
X28636Y-48076D01*
X28707Y-48006D01*
X28740Y-47927D01*
X28772Y-48005D01*
X28842Y-48076D01*
X28934Y-48114D01*
X29034Y-48114D01*
X29663Y-48114D01*
X29754Y-48076D01*
X29825Y-48006D01*
X29863Y-47914D01*
X29863Y-47814D01*
X29863Y-48327D01*
X25372Y-48325D01*
X25372Y-42748D01*
X25366Y-42410D01*
X25249Y-42126D01*
X25122Y-42062D01*
X25052Y-42133D01*
X25052Y-41992D01*
X24988Y-41865D01*
X24673Y-41742D01*
X24335Y-41748D01*
X24051Y-41865D01*
X23987Y-41992D01*
X24520Y-42524D01*
X25052Y-41992D01*
X25052Y-42133D01*
X24590Y-42595D01*
X25122Y-43127D01*
X25249Y-43063D01*
X25372Y-42748D01*
X25372Y-48325D01*
X25052Y-48325D01*
X25052Y-43197D01*
X24520Y-42665D01*
X23987Y-43197D01*
X24051Y-43324D01*
X24366Y-43447D01*
X24704Y-43441D01*
X24988Y-43324D01*
X25052Y-43197D01*
X25052Y-48325D01*
X23729Y-48325D01*
X23729Y-42915D01*
X23790Y-43063D01*
X23917Y-43127D01*
X24449Y-42595D01*
X23917Y-42062D01*
X23790Y-42126D01*
X23729Y-42282D01*
X23729Y-39245D01*
X33985Y-39264D01*
X33985Y-48329D01*
M02*
